<?xml version="1.0" encoding="utf-8"?>
<?xml-stylesheet type="text/xsl" href="rss1.xsl"?>
<rss version="2.0" xmlns:atom="http://www.w3.org/2005/Atom" xmlns:content="http://purl.org/rss/1.0/modules/content/" xmlns:dc="http://purl.org/dc/elements/1.1/" xmlns:media="http://search.yahoo.com/mrss/">
<channel>
 <title>Getty</title>
 <link>http://www.gettyimg.com/</link>
 <atom:link href="http://www.gettyimg.com/" rel="self" type="application/rss+xml" />

 
                <item>
                <title><![CDATA[【Cinema Center】MOVIE - 스타워즈 에피소드 3: 시스의 복수 (2005) (KOR-ENG) (1080p DSNP WEB-DL DDP5.1 H.264)]]></title>
                <link><![CDATA[https://sharemania.us/threads/%EC%8A%A4%ED%83%80%EC%9B%8C%EC%A6%88-%EC%97%90%ED%94%BC%EC%86%8C%EB%93%9C-3-%EC%8B%9C%EC%8A%A4%EC%9D%98-%EB%B3%B5%EC%88%98-2005-kor-eng-1080p-dsnp-web-dl-ddp5-1-h-264.233511/]]></link>
                <description><![CDATA[<article>
<blockquote class="messageText SelectQuoteContainer ugc baseHtml">
<b>Release Name</b><br>
Star.Wars.Episode.III.Revenge.of.the.Sith.2005.KOR-ENG.1080p.DSNP.WEB-DL.DDP5.1.H.264<br>
<br>
<div class="bbCodeBlock bbCodeCode">
<div class="type">Code:</div>
<pre>General
Unique ID                                : 221849045160600302615468319355227988197 (0xA6E6926967A9A8814457392643C9E0E5)
Complete name                            : Star.Wars.Episode.III.Revenge.of.the.Sith.2005.KOR-ENG.1080p.DSNP.WEB-DL.DDP5.1.H.264.mkv
Format                                   : Matroska
Format version                           : Version 4
File size                                : 6.15 GiB
Duration                                 : 2 h 20 min
Overall bit rate mode                    : Variable
Overall bit rate                         : 6 288 kb/s
Frame rate                               : 23.976 FPS
Movie name                               : 스타워즈: 시스의 복수 (에피소드 3)
Encoded date                             : 2023-12-02 17:48:16 UTC
Writing application                      : mkvmerge v68.0.0 ('The Curtain') 64-bit
Writing library                          : libebml v1.4.2 + libmatroska v1.6.4
Video
ID                                       : 1
Format                                   : AVC
Format/Info                              : Advanced Video Codec
Format profile                           : High@L4
Format settings                          : CABAC / 4 Ref Frames
Format settings, CABAC                   : Yes
Format settings, Reference frames        : 4 frames
Codec ID                                 : V_MPEG4/ISO/AVC
Duration                                 : 2 h 20 min
Bit rate mode                            : Variable
Bit rate                                 : 6 033 kb/s
Maximum bit rate                         : 12.7 Mb/s
Width                                    : 1 920 pixels
Height                                   : 1 080 pixels
Display aspect ratio                     : 16:9
Frame rate mode                          : Constant
Frame rate                               : 23.976 (24000/1001) FPS
Color space                              : YUV
Chroma subsampling                       : 4:2:0
Bit depth                                : 8 bits
Scan type                                : Progressive
Bits/(Pixel*Frame)                       : 0.121
Time code of first frame                 : 00:00:00;00
Stream size                              : 5.90 GiB (96%)
Default                                  : Yes
Forced                                   : No
Color range                              : Limited
Color primaries                          : BT.709
Transfer characteristics                 : BT.709
Matrix coefficients                      : BT.709
Audio #1
ID                                       : 2
Format                                   : AAC LC
Format/Info                              : Advanced Audio Codec Low Complexity
Codec ID                                 : 2 / A_AAC-2
Duration                                 : 2 h 20 min
Bit rate                                 : 125 kb/s
Channel(s)                               : 2 channels
Channel layout                           : L R
Sampling rate                            : 48.0 kHz
Frame rate                               : 46.875 FPS (1024 SPF)
Compression mode                         : Lossy
Stream size                              : 126 MiB (2%)
Title                                    : Korean (South Korea)
Language                                 : Korean
Default                                  : Yes
Forced                                   : No
Audio #2
ID                                       : 3
Format                                   : AAC LC
Format/Info                              : Advanced Audio Codec Low Complexity
Codec ID                                 : 2 / A_AAC-2
Duration                                 : 2 h 20 min
Bit rate                                 : 125 kb/s
Channel(s)                               : 2 channels
Channel layout                           : L R
Sampling rate                            : 48.0 kHz
Frame rate                               : 46.875 FPS (1024 SPF)
Compression mode                         : Lossy
Stream size                              : 126 MiB (2%)
Title                                    : English (United States)
Language                                 : English
Default                                  : No
Forced                                   : No
Text #1
ID                                       : 4
Format                                   : UTF-8
Codec ID                                 : S_TEXT/UTF8
Codec ID/Info                            : UTF-8 Plain Text
Duration                                 : 2 h 15 min
Bit rate                                 : 45 b/s
Frame rate                               : 0.181 FPS
Count of elements                        : 1469
Stream size                              : 44.8 KiB (0%)
Title                                    : English [CC]
Language                                 : English
Default                                  : No
Forced                                   : No
Text #2
ID                                       : 5
Format                                   : UTF-8
Codec ID                                 : S_TEXT/UTF8
Codec ID/Info                            : UTF-8 Plain Text
Duration                                 : 2 h 14 min
Bit rate                                 : 39 b/s
Frame rate                               : 0.138 FPS
Count of elements                        : 1114
Stream size                              : 38.8 KiB (0%)
Title                                    : Korean
Language                                 : Korean
Default                                  : No
Forced                                   : No
</pre>
</div>Download<br>
<ul>
<li><a href="https://gofile.io/d/eyE4I0" target="_blank" class="externalLink" rel="nofollow">https://gofile.io/d/eyE4I0</a></li>
</ul>
<div class="messageTextEndMarker">&nbsp;</div>
</blockquote>
</article>]]></description>
                <author><![CDATA[Austin Zimmermann]]></author>
                </item>

                
                <item>
                <title><![CDATA[【Requests】[REQ VID] - IVE - I AM from Bugs! 2160p]]></title>
                <link><![CDATA[https://sharemania.us/threads/ive-i-am-from-bugs-2160p.233510/]]></link>
                <description><![CDATA[<article>
<blockquote class="messageText SelectQuoteContainer ugc baseHtml">
Dead link, reupload please<br>
<a href="https://sharemania.us/threads/ive-i-am-bugs-4k-2160p.218773/" class="internalLink">https://sharemania.us/threads/ive-i-am-bugs-4k-2160p.218773/</a>
<div class="messageTextEndMarker">&nbsp;</div>
</blockquote>
</article>]]></description>
                <author><![CDATA[RiuJin]]></author>
                </item>

                </channel></rss>